# xmcd
#
# Track frame offsets: 
#        150
#        12442
#        29283
#        61629
#        77830
#        87859
#        119097
#        148203
#        168977
#        185317
#        203757
#        221240
#        238653
#
# Disc length: 3380 seconds
#
# Revision: 0
# Processed by: cddbd v1.5.2PL0 Copyright (c) Steve Scherf et al.
# Submitted via: ExactAudioCopy v0.99pb5
#
DISCID=b50d320d
DTITLE=Bad Brad and The Fat Cats - Take A Walk With Me (Live In The Stud
DTITLE=io)
DYEAR=2013
DGENRE=Blues
TTITLE0=Take A Walk With Me
TTITLE1=Leghound
TTITLE2=Ego Trip
TTITLE3=Take It Easy
TTITLE4=Going To The Country
TTITLE5=Headin' Out
TTITLE6=Lucky Man
TTITLE7=Other Side
TTITLE8=Runnin' Me Down
TTITLE9=See My Way
TTITLE10=Man On The Move
TTITLE11=Train Down South
TTITLE12=Uma
EXTD=
EXTT0=
EXTT1=
EXTT2=
EXTT3=
EXTT4=
EXTT5=
EXTT6=
EXTT7=
EXTT8=
EXTT9=
EXTT10=
EXTT11=
EXTT12=
PLAYORDER=
